<svg width="64" height="24" viewBox="0 0 64 24" fill="none" xmlns="http://www.w3.org/2000/svg">
<rect x="0.5" y="0.5" width="63" height="23" rx="11.5" stroke="#00D560"/>
<path d="M18.7585 16V7.27273H22.2017C22.8636 7.27273 23.4276 7.39915 23.8935 7.65199C24.3594 7.90199 24.7145 8.25 24.9588 8.69602C25.206 9.1392 25.3295 9.65057 25.3295 10.2301C25.3295 10.8097 25.2045 11.321 24.9545 11.7642C24.7045 12.2074 24.3423 12.5526 23.8679 12.7997C23.3963 13.0469 22.8253 13.1705 22.1548 13.1705H19.9602V11.6918H21.8565C22.2116 11.6918 22.5043 11.6307 22.7344 11.5085C22.9673 11.3835 23.1406 11.2116 23.2543 10.9929C23.3707 10.7713 23.429 10.517 23.429 10.2301C23.429 9.94034 23.3707 9.6875 23.2543 9.47159C23.1406 9.25284 22.9673 9.08381 22.7344 8.96449C22.5014 8.84233 22.206 8.78125 21.848 8.78125H20.6037V16H18.7585ZM26.294 16V9.45455H28.1093V16H26.294ZM27.2059 8.6108C26.936 8.6108 26.7045 8.52131 26.5113 8.34233C26.321 8.16051 26.2258 7.94318 26.2258 7.69034C26.2258 7.44034 26.321 7.22585 26.5113 7.04688C26.7045 6.86506 26.936 6.77415 27.2059 6.77415C27.4758 6.77415 27.7059 6.86506 27.8962 7.04688C28.0894 7.22585 28.186 7.44034 28.186 7.69034C28.186 7.94318 28.0894 8.16051 27.8962 8.34233C27.7059 8.52131 27.4758 8.6108 27.2059 8.6108ZM30.8805 9.45455L32.0822 11.7429L33.3138 9.45455H35.176L33.2797 12.7273L35.2271 16H33.3734L32.0822 13.7372L30.8124 16H28.9374L30.8805 12.7273L29.0055 9.45455H30.8805ZM36.0541 18.4545V9.45455H37.8439V10.554H37.9249C38.0044 10.3778 38.1195 10.1989 38.27 10.017C38.4234 9.83239 38.6223 9.67898 38.8666 9.55682C39.1138 9.43182 39.4206 9.36932 39.7871 9.36932C40.2643 9.36932 40.7047 9.49432 41.1081 9.74432C41.5115 9.99148 41.8339 10.3651 42.0754 10.8651C42.3169 11.3622 42.4376 11.9858 42.4376 12.7358C42.4376 13.4659 42.3197 14.0824 42.0839 14.5852C41.851 15.0852 41.5328 15.4645 41.1294 15.723C40.7288 15.9787 40.28 16.1065 39.7828 16.1065C39.4305 16.1065 39.1308 16.0483 38.8837 15.9318C38.6393 15.8153 38.4391 15.669 38.2828 15.4929C38.1266 15.3139 38.0072 15.1335 37.9249 14.9517H37.8695V18.4545H36.0541ZM37.8311 12.7273C37.8311 13.1165 37.8851 13.456 37.993 13.7457C38.101 14.0355 38.2572 14.2614 38.4618 14.4233C38.6663 14.5824 38.9149 14.6619 39.2075 14.6619C39.503 14.6619 39.753 14.581 39.9575 14.419C40.1621 14.2543 40.3169 14.027 40.422 13.7372C40.53 13.4446 40.5839 13.108 40.5839 12.7273C40.5839 12.3494 40.5314 12.017 40.4263 11.7301C40.3212 11.4432 40.1663 11.2187 39.9618 11.0568C39.7572 10.8949 39.5058 10.8139 39.2075 10.8139C38.9121 10.8139 38.6621 10.892 38.4575 11.0483C38.2558 11.2045 38.101 11.4261 37.993 11.7131C37.8851 12 37.8311 12.3381 37.8311 12.7273ZM45.2632 7.27273V16H43.4479V7.27273H45.2632Z" fill="#00D560"/>
</svg>
