<svg width="62" height="30" viewBox="0 0 62 30" fill="none" xmlns="http://www.w3.org/2000/svg">
<rect x="0.5" y="0.5" width="61" height="29" rx="14.5" stroke="#00D560"/>
<path d="M20.7585 19V10.2727H24.2017C24.8636 10.2727 25.4276 10.3991 25.8935 10.652C26.3594 10.902 26.7145 11.25 26.9588 11.696C27.206 12.1392 27.3295 12.6506 27.3295 13.2301C27.3295 13.8097 27.2045 14.321 26.9545 14.7642C26.7045 15.2074 26.3423 15.5526 25.8679 15.7997C25.3963 16.0469 24.8253 16.1705 24.1548 16.1705H21.9602V14.6918H23.8565C24.2116 14.6918 24.5043 14.6307 24.7344 14.5085C24.9673 14.3835 25.1406 14.2116 25.2543 13.9929C25.3707 13.7713 25.429 13.517 25.429 13.2301C25.429 12.9403 25.3707 12.6875 25.2543 12.4716C25.1406 12.2528 24.9673 12.0838 24.7344 11.9645C24.5014 11.8423 24.206 11.7812 23.848 11.7812H22.6037V19H20.7585ZM28.294 19V12.4545H30.1093V19H28.294ZM29.2059 11.6108C28.936 11.6108 28.7045 11.5213 28.5113 11.3423C28.321 11.1605 28.2258 10.9432 28.2258 10.6903C28.2258 10.4403 28.321 10.2259 28.5113 10.0469C28.7045 9.86506 28.936 9.77415 29.2059 9.77415C29.4758 9.77415 29.7059 9.86506 29.8962 10.0469C30.0894 10.2259 30.186 10.4403 30.186 10.6903C30.186 10.9432 30.0894 11.1605 29.8962 11.3423C29.7059 11.5213 29.4758 11.6108 29.2059 11.6108ZM32.8805 12.4545L34.0822 14.7429L35.3138 12.4545H37.176L35.2797 15.7273L37.2271 19H35.3734L34.0822 16.7372L32.8124 19H30.9374L32.8805 15.7273L31.0055 12.4545H32.8805ZM38.0541 21.4545V12.4545H39.8439V13.554H39.9249C40.0044 13.3778 40.1195 13.1989 40.27 13.017C40.4234 12.8324 40.6223 12.679 40.8666 12.5568C41.1138 12.4318 41.4206 12.3693 41.7871 12.3693C42.2643 12.3693 42.7047 12.4943 43.1081 12.7443C43.5115 12.9915 43.8339 13.3651 44.0754 13.8651C44.3169 14.3622 44.4376 14.9858 44.4376 15.7358C44.4376 16.4659 44.3197 17.0824 44.0839 17.5852C43.851 18.0852 43.5328 18.4645 43.1294 18.723C42.7288 18.9787 42.28 19.1065 41.7828 19.1065C41.4305 19.1065 41.1308 19.0483 40.8837 18.9318C40.6393 18.8153 40.4391 18.669 40.2828 18.4929C40.1266 18.3139 40.0072 18.1335 39.9249 17.9517H39.8695V21.4545H38.0541ZM39.8311 15.7273C39.8311 16.1165 39.8851 16.456 39.993 16.7457C40.101 17.0355 40.2572 17.2614 40.4618 17.4233C40.6663 17.5824 40.9149 17.6619 41.2075 17.6619C41.503 17.6619 41.753 17.581 41.9575 17.419C42.1621 17.2543 42.3169 17.027 42.422 16.7372C42.53 16.4446 42.5839 16.108 42.5839 15.7273C42.5839 15.3494 42.5314 15.017 42.4263 14.7301C42.3212 14.4432 42.1663 14.2187 41.9618 14.0568C41.7572 13.8949 41.5058 13.8139 41.2075 13.8139C40.9121 13.8139 40.6621 13.892 40.4575 14.0483C40.2558 14.2045 40.101 14.4261 39.993 14.7131C39.8851 15 39.8311 15.3381 39.8311 15.7273ZM47.2632 10.2727V19H45.4479V10.2727H47.2632Z" fill="#00D560"/>
</svg>
