<svg width="36" height="36" viewBox="0 0 36 36" fill="none" xmlns="http://www.w3.org/2000/svg">
<rect width="36" height="36" rx="18" fill="#212225"/>
<path d="M18 8C23.52 8 28 12.48 28 18C28 23.52 23.52 28 18 28C12.48 28 8 23.52 8 18C8 12.48 12.48 8 18 8ZM18 13C15.24 13 13 15.24 13 18C13 20.76 15.24 23 18 23C18.8636 23 19.7124 22.7764 20.4639 22.3509C21.2153 21.9254 21.8438 21.3125 22.288 20.572L20.573 19.544C20.3031 19.9936 19.9201 20.3646 19.4621 20.6201C19.0041 20.8755 18.4871 21.0064 17.9627 20.9998C17.4384 20.9931 16.9249 20.8491 16.4735 20.5821C16.0222 20.3152 15.6487 19.9345 15.3903 19.4782C15.1319 19.0219 14.9976 18.5058 15.0009 17.9814C15.0041 17.457 15.1448 16.9426 15.4088 16.4895C15.6729 16.0364 16.0511 15.6604 16.5057 15.3991C16.9604 15.1378 17.4756 15.0001 18 15C19.093 15 20.05 15.584 20.573 16.457L22.288 15.427C21.8437 14.6866 21.2152 14.074 20.4637 13.6486C19.7123 13.2233 18.8635 12.9999 18 13Z" fill="white"/>
</svg>
