<svg width="40" height="40" viewBox="0 0 40 40" fill="none" xmlns="http://www.w3.org/2000/svg">
<rect x="0.5" y="0.5" width="39" height="39" rx="19.5" fill="#00DF5A"/>
<rect x="0.5" y="0.5" width="39" height="39" rx="19.5" stroke="black"/>
<rect x="0.5" y="0.5" width="39" height="39" rx="19.5" stroke="#00DF5A"/>
<path d="M19.9998 10.5C20.1855 10.5001 20.3674 10.5519 20.5253 10.6496C20.6832 10.7472 20.8108 10.8869 20.8938 11.053L23.4738 16.211L29.1438 17.035C29.3285 17.0618 29.502 17.1398 29.6447 17.2601C29.7874 17.3804 29.8936 17.5382 29.9512 17.7158C30.0088 17.8933 30.0157 18.0834 29.9709 18.2646C29.9261 18.4457 29.8315 18.6108 29.6978 18.741L25.5708 22.765L26.4988 28.439C26.5286 28.6227 26.5066 28.811 26.4352 28.9829C26.3638 29.1547 26.2459 29.3032 26.0947 29.4117C25.9435 29.5202 25.7651 29.5843 25.5794 29.5969C25.3937 29.6095 25.2083 29.5701 25.0438 29.483L19.9998 26.807L14.9558 29.483C14.7913 29.5701 14.6059 29.6095 14.4202 29.5969C14.2345 29.5843 14.0561 29.5202 13.9049 29.4117C13.7537 29.3032 13.6358 29.1547 13.5644 28.9829C13.493 28.811 13.471 28.6227 13.5008 28.439L14.4288 22.765L10.3018 18.741C10.1681 18.6108 10.0735 18.4457 10.0287 18.2646C9.98394 18.0834 9.99076 17.8933 10.0484 17.7158C10.106 17.5382 10.2122 17.3804 10.3549 17.2601C10.4976 17.1398 10.6711 17.0618 10.8558 17.035L16.5258 16.211L19.1058 11.053C19.1888 10.8869 19.3164 10.7472 19.4743 10.6496C19.6322 10.5519 19.8141 10.5001 19.9998 10.5ZM19.9998 13.736L18.0818 17.572C18.0098 17.7163 17.904 17.841 17.7734 17.9355C17.6428 18.0301 17.4913 18.0917 17.3318 18.115L13.1478 18.723L16.1978 21.696C16.3131 21.8083 16.3995 21.9468 16.4498 22.0996C16.5001 22.2525 16.5128 22.4152 16.4868 22.574L15.7998 26.771L19.5308 24.791C19.6752 24.7143 19.8363 24.6742 19.9998 24.6742C20.1633 24.6742 20.3244 24.7143 20.4688 24.791L24.1998 26.771L23.5128 22.574C23.4869 22.4154 23.4997 22.2528 23.55 22.1001C23.6003 21.9475 23.6867 21.8092 23.8018 21.697L26.8518 18.723L22.6688 18.115C22.5093 18.0917 22.3578 18.0301 22.2272 17.9355C22.0966 17.841 21.9908 17.7163 21.9188 17.572L19.9998 13.736Z" fill="white"/>
</svg>
